<svg xmlns="http://www.w3.org/2000/svg" width="422.282" height="43.094" viewBox="0 0 422.282 43.094">
  <defs>
    <style>
      .cls-1 {
        fill: #fff;
        fill-rule: evenodd;
      }
    </style>
  </defs>
  <path id="A_Celebrated_Life" data-name="A Celebrated Life" class="cls-1" d="M408.976,108.327c0.636,1.818,2.5,7.633,2.862,9.268,0.318,1.272-.091,1.727-1.363,1.727h-1.136c-0.272,0-.409.045-0.409,0.318v1.045a0.349,0.349,0,0,0,.364.408c1.045,0,2.635-.136,6.405-0.136,3.68,0,4.634.136,5.452,0.136,0.318,0,.454-0.09.454-0.318V119.64a0.3,0.3,0,0,0-.363-0.318h-1.5a3.4,3.4,0,0,1-3.09-2.045c-0.636-1.317-3.589-9.767-4.633-13.311-0.864-2.907-4.407-13.084-5.27-15.946-0.137-.5-0.228-0.772-0.5-0.772a0.941,0.941,0,0,0-.591.409,9.168,9.168,0,0,1-3.77,2.272,0.461,0.461,0,0,0-.409.409,1.26,1.26,0,0,0,.318.591,1.83,1.83,0,0,1-.046,1.545c-0.409,1.227-4.088,10.994-4.406,11.9-1.318,3.725-4.634,12.13-4.952,12.857-0.636,1.454-1.272,2.09-2.635,2.09h-1.59a0.322,0.322,0,0,0-.364.318v1.09c0,0.273.091,0.363,0.318,0.363,0.636,0,1.636-.136,4.952-0.136,2.68,0,4.543.136,5.179,0.136a0.331,0.331,0,0,0,.364-0.408V119.64c0-.228-0.137-0.318-0.455-0.318h-2.135c-1,0-1.545-.364-1.545-1,0-.227.091-0.681,0.137-1,0.227-.954,2.726-7.86,3.18-9h11.176Zm-10.586-1.635c0.318-1.136,4.634-12.766,4.861-13.356a0.947,0.947,0,0,1,.5-0.681,1.083,1.083,0,0,1,.364.636c0.227,0.681,3.907,12.039,4.316,13.4H398.39Zm58.84,15.141c8.233,0,13.9-4.73,17.4-9.81a0.323,0.323,0,0,0-.117-0.525l-0.759-.584c-0.175-.175-0.292-0.117-0.467.175a17.847,17.847,0,0,1-14.423,7.416c-3.912,0-7.24-.467-11.211-4.905a23.383,23.383,0,0,1-5.605-15.006c-0.058-8.525,4.146-17.809,14.6-17.809a13.524,13.524,0,0,1,10.16,4.5,22.609,22.609,0,0,1,4.554,7.24c0.175,0.467.292,0.526,0.584,0.467l0.876-.233a0.431,0.431,0,0,0,.233-0.584c-0.292-1.635-1.459-10.218-1.459-11.328,0-.817-0.117-0.934-0.643-0.934s-0.642,0-.759.35l-0.467,1.693c-0.117.409-.409,0.467-1.168,0a24.264,24.264,0,0,0-11.8-3.212,20.336,20.336,0,0,0-14.6,5.9,22.2,22.2,0,0,0-5.956,15.474c0,5.605,2.044,12.378,6.248,16.349C445.96,119.673,450.339,121.833,457.23,121.833Zm41.417-16.408c0.934,0,1.635-.117,1.635-0.934,0-2.277-1.869-8.583-8.584-8.583-2.919,0-5.839.526-8.349,3.095a13.144,13.144,0,0,0-3.679,9.284c0,4.088.525,6.248,2.569,9.226,2.161,3.153,5.839,4.146,9.167,4.146,5.2,0,8.234-4.029,9.285-6.365,0.292-.642.175-0.817,0-0.876l-0.76-.408a0.472,0.472,0,0,0-.525.292,7.911,7.911,0,0,1-7.065,3.97c-4.672,0-8.292-4.321-8.292-10.043a15.073,15.073,0,0,1,.175-2.8h14.423Zm-14.189-1.752c1.109-4.32,3.562-6.014,6.131-6.014,3.8,0,4.5,3.854,4.5,5.2,0,0.525-.467.817-1.576,0.817h-9.051Zm28.956-5.313c0-3.212.176-15.357,0.234-18.568,0.058-.759-0.058-1.051-0.467-1.051a2.158,2.158,0,0,0-1.226.467,52.9,52.9,0,0,1-6.832,3.387A0.581,0.581,0,0,0,504.6,83V83.47c0,0.117.059,0.175,0.351,0.292l1.168,0.409c1.868,0.584,2.8,1.518,2.919,3.5,0.117,1.518.175,6.832,0.175,10.977v3.678c0,3.387,0,13.43-.058,15.24a1.307,1.307,0,0,1-1.285,1.46h-2.8c-0.643,0-.76.117-0.76,0.526v0.992c0,0.351.117,0.584,0.409,0.584,0.526,0,2.861-.175,6.6-0.175,3.621,0,6.19.175,6.6,0.175,0.233,0,.35-0.233.35-0.584v-0.992c0-.351-0.117-0.526-0.642-0.526h-2.628c-1.226,0-1.46-.817-1.518-1.81-0.059-1.81-.059-10.627-0.059-13.663v-5.2Zm26.919,7.065c0.934,0,1.635-.117,1.635-0.934,0-2.277-1.869-8.583-8.584-8.583-2.919,0-5.839.526-8.349,3.095a13.144,13.144,0,0,0-3.679,9.284c0,4.088.525,6.248,2.569,9.226,2.161,3.153,5.839,4.146,9.167,4.146,5.2,0,8.234-4.029,9.285-6.365,0.292-.642.175-0.817,0-0.876l-0.759-.408a0.473,0.473,0,0,0-.526.292,7.911,7.911,0,0,1-7.065,3.97c-4.672,0-8.292-4.321-8.292-10.043a15.073,15.073,0,0,1,.175-2.8h14.423Zm-14.189-1.752c1.109-4.32,3.562-6.014,6.131-6.014,3.8,0,4.5,3.854,4.5,5.2,0,0.525-.467.817-1.576,0.817h-9.051Zm23.351,7.358c0,4.262,0,9.109-.117,9.926-0.058.292,0,.409,0.234,0.467l0.7,0.175a0.84,0.84,0,0,0,.759-0.175l2.336-1.284a13.477,13.477,0,0,0,6.89,1.518c6.657,0,12.146-6.423,12.146-13.255,0-8.35-5.548-12.5-10.686-12.5a12.378,12.378,0,0,0-8.058,2.919V92.054c0-5.2,0-11.853.058-12.321,0.059-.7-0.058-0.993-0.467-0.993a2.444,2.444,0,0,0-1.226.525,61.718,61.718,0,0,1-6.189,3.212,0.593,0.593,0,0,0-.467.467v0.467c0,0.175.116,0.292,0.759,0.467l0.584,0.175c2.1,0.7,2.744,1.518,2.744,5.43v21.547Zm4.2-10.219a7.772,7.772,0,0,1,5.547-2.1c5.722,0,8.7,5.372,8.7,11.036,0,7.649-4.32,10.043-7.824,10.043-2.511,0-4.963-1.518-5.547-2.919-0.7-1.869-.876-3.62-0.876-8.467v-7.591Zm27.853,10.1c0,3.036,0,5.08-.058,7.007a1.05,1.05,0,0,1-1.285,1.109h-2.277c-0.526,0-.642.117-0.642,0.526v0.992c0,0.468.116,0.584,0.35,0.584,0.35,0,2.8-.175,6.423-0.175,3.153,0,5.839.175,6.189,0.175,0.234,0,.292-0.175.292-0.525v-1.051c0-.351-0.058-0.526-0.409-0.526h-2.744c-1.226,0-1.635-.584-1.635-2.394V104.491a6.318,6.318,0,0,1,.584-1.869,4.146,4.146,0,0,1,3.445-2.452,3.759,3.759,0,0,1,1.927.467,3.822,3.822,0,0,0,1.693.467,2.821,2.821,0,0,0,2.453-2.861c0-1.343-.993-2.569-2.978-2.569-2.511,0-5.255,2.394-7.007,5.08h-0.234l-0.292-4.146c0-.35-0.058-0.7-0.408-0.7a1.761,1.761,0,0,0-.818.234l-5.78,2.978a0.587,0.587,0,0,0-.468.525v0.35c0,0.233.117,0.292,0.468,0.409l1.109,0.583c1.635,0.876,2.1,1.46,2.1,4.438v5.489Zm34.048,3.095V101.63c0-1.577-.058-2.92-1.284-4.146-0.818-.759-1.927-1.576-4.672-1.576a12.877,12.877,0,0,0-7.123,2.044c-2.394,1.4-4.029,3.62-4.029,5.489,0,1.343.467,1.868,1.4,1.868,2.394,0,3.1-1.284,3.1-3.328,0-1.051-.526-1.927.292-2.686a6.54,6.54,0,0,1,3.8-1.226,4.441,4.441,0,0,1,3.5,1.285c0.642,0.759.7,2.277,0.817,3.269v3.737c-0.934.818-3.971,2.219-6.6,3.387-4.613,2.044-5.839,4.379-5.839,7.065,0,3.679,2.1,4.847,3.5,4.847a10.949,10.949,0,0,0,3.445-.351,12.583,12.583,0,0,0,5.781-3.561H611.8c0.525,2.394,2.043,3.912,4.145,3.912a4.824,4.824,0,0,0,4.555-2.861,0.775,0.775,0,0,0,.058-1.051l-0.584-.467c-0.233-.176-0.35-0.059-0.583.233a2.689,2.689,0,0,1-2.044.876C616.3,118.388,615.6,117.337,615.6,114.009Zm-4.262,1.284c0,1.577-3.095,3.62-4.788,3.62a2.873,2.873,0,0,1-3.037-3.211c0-4.846,5.723-6.014,7.825-7.591v7.182Zm20.606-7.474c0-2.686.059-5.547,0.175-8.233h7.533a0.476,0.476,0,0,0,.525-0.467l0.584-2.044a0.382,0.382,0,0,0-.409-0.525h-8.116l0.292-5.722c0-.467-0.117-0.876-0.584-0.876a0.783,0.783,0,0,0-.817.584c-0.759,1.985-5.255,6.481-6.657,7.3-0.7.409-1.051,0.584-1.051,1.051a0.733,0.733,0,0,0,.876.7h3.562c-0.059,2.453-.117,6.423-0.117,7.474v1.285c0,0.817-.175,5.956-0.175,8.35,0,2.218,2.8,4.963,5.664,4.963a9.822,9.822,0,0,0,6.481-2.336,0.467,0.467,0,0,0,.117-0.642l-0.292-.526a0.477,0.477,0,0,0-.7-0.116,8.4,8.4,0,0,1-3.853.759c-1.052,0-3.037-.759-3.037-5.139v-5.839Zm29.862-2.394c0.934,0,1.635-.117,1.635-0.934,0-2.277-1.869-8.583-8.584-8.583-2.919,0-5.839.526-8.35,3.095a13.146,13.146,0,0,0-3.678,9.284c0,4.088.525,6.248,2.569,9.226,2.16,3.153,5.839,4.146,9.167,4.146,5.2,0,8.233-4.029,9.284-6.365,0.292-.642.175-0.817,0-0.876l-0.759-.408a0.472,0.472,0,0,0-.525.292,7.913,7.913,0,0,1-7.066,3.97c-4.671,0-8.291-4.321-8.291-10.043a14.984,14.984,0,0,1,.175-2.8h14.423Zm-14.189-1.752c1.109-4.32,3.561-6.014,6.131-6.014,3.795,0,4.5,3.854,4.5,5.2,0,0.525-.467.817-1.577,0.817h-9.05Zm40.342-6.89a21.773,21.773,0,0,0-6.247-.876,11.742,11.742,0,0,0-8.7,3.679,13.914,13.914,0,0,0-4.087,9.927c0,3.912.7,6.539,3.679,9.459a8.08,8.08,0,0,0,6.89,2.686c2.978,0,6.715-1.285,8.583-3.153l0.759,2.569a0.57,0.57,0,0,0,.759.467l6.6-2.219a0.5,0.5,0,0,0,.409-0.642l-0.117-.467c-0.116-.292-0.35-0.351-1.167-0.409a4.356,4.356,0,0,1-2.57-.993c-0.467-.584-0.583-3.153-0.583-5.313v-12.9c0-7.416.058-15.882,0.233-18.8,0.058-.642,0-1.051-0.292-1.051-0.409,0-.817.117-1.343,0.175-1.109.234-4.146,0.759-6.423,1.226-0.35.058-.467,0.175-0.467,0.409v0.993c0,0.234.058,0.35,0.409,0.409,3.27,0.525,3.678,1.226,3.678,3.445V96.783Zm0,17.167a5.473,5.473,0,0,1-.35,1.986c-0.584,1.518-3.1,3.211-6.365,3.211-3.386,0-7.941-4.788-7.941-11.386a11.155,11.155,0,0,1,2.686-7.766,7.2,7.2,0,0,1,5.314-2.1c3.445,0,5.313,1.577,6.131,3.153a5.771,5.771,0,0,1,.525,2.861V113.95Zm33.167-15.882c0,3.562-.175,18.1-0.175,19.211,0,0.759-.35,1.576-2.511,1.576h-2.8a0.33,0.33,0,0,0-.408.409v1.46c0,0.292.058,0.408,0.467,0.408s1.109-.058,2.277-0.116c1.226,0,2.92-.059,5.2-0.059,3.153,0,8.875,0,14.072.059,5.2,0,9.751.058,10.51,0.116,0.351-1.576,2.686-11.211,2.862-11.619,0.058-.351.058-0.409-0.117-0.526l-0.934-.35c-0.234-.117-0.351,0-0.468.233-0.817,2.277-4.321,9.284-7.766,9.81-1.81.233-13.371,0.117-14.656,0-0.175-2.394-.175-15.007-0.175-16V97.659c0-4.087.175-12.9,0.175-13.663,0-1.693.234-2.277,2.044-2.277h3.5c0.468,0,.584-0.175.584-0.467V79.908c0-.292-0.058-0.467-0.525-0.467-0.526,0-2.978.175-8.642,0.175-4.846,0-6.948-.175-7.591-0.175a0.33,0.33,0,0,0-.409.409v1.285c0,0.292.059,0.584,0.409,0.584h2.745c1.751,0,2.043.584,2.16,2.1,0.058,1.051.175,7.24,0.175,10.977v3.27Zm37.383,14.481c0,1.752,0,3.562-.059,5.313-0.058.935-.292,1.168-0.934,1.168h-2.861c-0.409,0-.584.117-0.584,0.467v1.168a0.4,0.4,0,0,0,.467.467c0.642,0,2.92-.175,6.306-0.175,2.453,0,5.139.175,5.606,0.175,0.409,0,.525-0.175.525-0.584v-0.992c0-.351-0.116-0.526-0.584-0.526h-2.686c-0.642,0-.817-0.409-0.934-1.518-0.058-.642-0.058-2.744-0.058-5.022v-6.364c0-4.847,0-8.525.117-9.518,0.058-.409,0-0.7-0.292-0.7a2.409,2.409,0,0,0-1.11.35,47.768,47.768,0,0,1-6.306,2.861,0.48,0.48,0,0,0-.409.409v0.525c0,0.234.117,0.351,0.526,0.409,2.919,0.467,3.27,1.518,3.27,3.5v8.584Zm0.584-23.24a3.344,3.344,0,0,0,3.5-3.445,3.077,3.077,0,0,0-3.153-3.095,3.445,3.445,0,0,0-3.679,3.27A3.559,3.559,0,0,0,759.093,89.309Zm15.3,10.043v17.634c-0.058,1.343-.292,2.043-1.4,2.043h-2.8c-0.467,0-.584.117-0.584,0.409v1.285c0,0.292.117,0.408,0.467,0.408,0.468,0,3.445-.175,6.657-0.175,4.5,0,6.657.175,7.007,0.175,0.292,0,.409-0.233.409-0.7V119.5c0-.35-0.117-0.467-0.643-0.467h-3.328c-1.226,0-1.4-.525-1.518-1.518-0.059-.642-0.059-6.014-0.059-12.9V99.353h6.423c0.468,0,.7-0.058.76-0.292l0.291-1.927a0.423,0.423,0,0,0-.408-0.584H778.6V95.44c0-4.087-.116-9.167,2.044-11.912a5.2,5.2,0,0,1,4.379-2.044,3.213,3.213,0,0,1,2.686,1.343,6.215,6.215,0,0,0,1.4,1.343,3.729,3.729,0,0,0,1.635.35,2.79,2.79,0,0,0,2.452-2.511c0-2.219-2.569-3.27-5.313-3.27-3.27,0-6.482,1.226-9.576,4.613-2.278,2.569-3.913,6.365-3.913,12.145V96.55h-3.386c-0.467,0-.643.058-0.7,0.409L770.07,98.71c-0.116.525,0,.642,0.292,0.642h4.029Zm33.482,6.072c0.934,0,1.635-.117,1.635-0.934,0-2.277-1.869-8.583-8.584-8.583-2.919,0-5.839.526-8.349,3.095a13.144,13.144,0,0,0-3.679,9.284c0,4.088.525,6.248,2.569,9.226,2.161,3.153,5.839,4.146,9.168,4.146,5.2,0,8.233-4.029,9.284-6.365,0.292-.642.175-0.817,0-0.876l-0.759-.408a0.473,0.473,0,0,0-.526.292,7.911,7.911,0,0,1-7.065,3.97c-4.671,0-8.292-4.321-8.292-10.043a15.073,15.073,0,0,1,.175-2.8h14.423Zm-14.189-1.752c1.109-4.32,3.562-6.014,6.131-6.014,3.795,0,4.5,3.854,4.5,5.2,0,0.525-.467.817-1.576,0.817h-9.051Z" transform="translate(-387.812 -78.75)"/>
</svg>
