<svg xmlns="http://www.w3.org/2000/svg" width="358.688" height="13.812" viewBox="0 0 358.688 13.812">
  <defs>
    <style>
      .cls-1 {
        fill: #dee275;
        fill-rule: evenodd;
      }
    </style>
  </defs>
  <path id="CBN_TRIBUTE_GIFTS" data-name="CBN TRIBUTE GIFTS" class="cls-1" d="M426.555,151.479a5.979,5.979,0,0,0,4.86-2.38l-0.96-.6a4.848,4.848,0,0,1-3.9,1.94,5.868,5.868,0,0,1,0-11.72,4.848,4.848,0,0,1,3.9,1.94l0.96-.62a6.018,6.018,0,0,0-4.86-2.36A6.9,6.9,0,0,0,426.555,151.479Zm23.941-.24c2.38,0,3.82-1.38,3.82-3.6a3.347,3.347,0,0,0-2.6-3.28,3.035,3.035,0,0,0,2.34-3.06c0-2.1-1.44-3.4-3.68-3.4H444.9v13.34h5.6Zm-0.26-7.36h-4.2v-4.94h4.2a2.4,2.4,0,0,1,2.62,2.48A2.376,2.376,0,0,1,450.236,143.879Zm0.08,6.32h-4.28v-5.28h4.28a2.594,2.594,0,0,1,2.8,2.64A2.515,2.515,0,0,1,450.316,150.2Zm28.9,1.04V137.9h-1.14v11.3l-8.359-11.3h-1.16v13.34h1.14v-11.46l8.4,11.46h1.12Zm35.559,0v-12.3h4.36V137.9h-9.879v1.04h4.359v12.3h1.16Zm27.356,0-3.86-5.6a3.676,3.676,0,0,0,3.7-3.84,3.779,3.779,0,0,0-4.06-3.9h-4.98v13.34h1.14v-5.52h2.94l3.74,5.52h1.38Zm-4.32-6.56h-3.74v-5.74h3.74A2.871,2.871,0,1,1,537.809,144.679Zm19.918,6.56V137.9h-1.14v13.34h1.14Zm20.575,0c2.38,0,3.82-1.38,3.82-3.6a3.347,3.347,0,0,0-2.6-3.28,3.035,3.035,0,0,0,2.34-3.06c0-2.1-1.44-3.4-3.68-3.4H572.7v13.34h5.6Zm-0.26-7.36h-4.2v-4.94h4.2a2.4,2.4,0,0,1,2.62,2.48A2.376,2.376,0,0,1,578.042,143.879Zm0.08,6.32h-4.28v-5.28h4.28a2.594,2.594,0,0,1,2.8,2.64A2.515,2.515,0,0,1,578.122,150.2Zm23.438,1.28c3.44,0,5.2-2.06,5.2-5.36V137.9H605.6v8.2c0,2.7-1.4,4.34-4.04,4.34-2.62,0-4.04-1.64-4.04-4.34v-8.2h-1.16v8.22C596.36,149.4,598.14,151.479,601.56,151.479Zm24.9-.24v-12.3h4.36V137.9h-9.88v1.04h4.36v12.3h1.16Zm26.615,0V150.2h-7.32v-5.28h7.18v-1.04h-7.18v-4.94h7.32V137.9h-8.46v13.34h8.46Zm36.63,0.26a6.733,6.733,0,0,0,5.06-2.22v-4.66h-6.18v1.02h5.04v3.2a5.676,5.676,0,0,1-3.92,1.62,5.879,5.879,0,0,1,0-11.74,5.437,5.437,0,0,1,4.16,1.86l0.86-.62a6.337,6.337,0,0,0-5.02-2.28A6.912,6.912,0,0,0,689.709,151.5Zm20.424-.26V137.9h-1.14v13.34h1.14Zm16.115,0v-6.32h7.18v-1.04h-7.18v-4.94h7.32V137.9h-8.46v13.34h1.14Zm25.192,0v-12.3h4.36V137.9h-9.879v1.04h4.359v12.3h1.16Zm22.3,0.24c3.6,0,4.74-2.06,4.74-3.78,0-4.98-8-3.1-8-6.52,0-1.44,1.34-2.46,3.12-2.46a4.778,4.778,0,0,1,3.82,1.68l0.76-.84a5.73,5.73,0,0,0-4.52-1.88c-2.42,0-4.38,1.38-4.38,3.56,0,4.66,8,2.62,8,6.54,0,1.14-.78,2.66-3.52,2.66a5.437,5.437,0,0,1-4.16-1.94l-0.74.86A6.135,6.135,0,0,0,773.736,151.479Z" transform="translate(-419.781 -137.688)"/>
</svg>
