<svg xmlns="http://www.w3.org/2000/svg" width="259" height="24.281" viewBox="0 0 259 24.281">
  <defs>
    <style>
      .cls-1 {
        fill: #fff;
        fill-rule: evenodd;
      }
    </style>
    
       <filter id="filter1" x="0" y="0">
           <feOffset result="offOut" in="SourceAlpha" dx="2" dy="2" />
           <feGaussianBlur result="blurOut" in="offOut" stdDeviation="1" />
           <feBlend in="SourceGraphic" in2="blurOut" mode="normal" />
    </filter>

    
  </defs>
  <path id="Tribute_Occasions_copy" data-name="Tribute Occasions copy" class="cls-1" d="M478.954,596.608c0,0.608,0,10.431-.1,11.359a0.961,0.961,0,0,1-1.056.768h-2.176c-0.192,0-.224.1-0.224,0.32v0.608a0.253,0.253,0,0,0,.288.32c0.448,0,1.792-.1,4.863-0.1,3.136,0,4.16.1,4.48,0.1,0.288,0,.32-0.1.32-0.256v-0.672c0-.224-0.032-0.32-0.32-0.32h-2.016c-0.768,0-1.024-.48-1.088-1.28-0.032-.544-0.032-9.5-0.032-9.951v-9.12h0.9c1.568,0,4.576.064,5.536,0.544,1.056,0.512,2.016,2.976,2.272,3.584,0.1,0.224.128,0.256,0.256,0.224l0.512-.128a0.191,0.191,0,0,0,.192-0.256c-0.256-1.408-.864-5.376-0.928-5.76-0.064-.416-0.128-0.512-0.288-0.512a0.682,0.682,0,0,0-.384.128l-0.608.384a3.153,3.153,0,0,1-1.664.448c-1.568.064-2.944,0.192-6.432,0.192h-1.536c-3.007,0-4.351-.128-6.047-0.192a2.646,2.646,0,0,1-1.824-.544l-0.416-.288a0.559,0.559,0,0,0-.384-0.128c-0.128,0-.256.1-0.32,0.512-0.064.352-1.184,4.48-1.5,5.632a0.165,0.165,0,0,0,.128.256l0.576,0.16a0.239,0.239,0,0,0,.32-0.16c0.448-1.024,1.408-3.264,2.848-3.712a23.456,23.456,0,0,1,5.056-.384h0.8v8.224Zm15.2,7.775c0,1.664,0,2.784-.032,3.84a0.575,0.575,0,0,1-.7.608H492.17c-0.288,0-.352.064-0.352,0.288v0.544c0,0.256.064,0.32,0.192,0.32,0.192,0,1.536-.1,3.52-0.1,1.728,0,3.2.1,3.392,0.1,0.128,0,.16-0.1.16-0.288v-0.576c0-.192-0.032-0.288-0.224-0.288h-1.5c-0.672,0-.9-0.32-0.9-1.312v-6.656a3.451,3.451,0,0,1,.32-1.024,2.272,2.272,0,0,1,1.888-1.343,2.06,2.06,0,0,1,1.056.256,2.1,2.1,0,0,0,.927.256,1.546,1.546,0,0,0,1.344-1.568,1.447,1.447,0,0,0-1.631-1.408c-1.376,0-2.88,1.312-3.84,2.784h-0.128l-0.16-2.272c0-.192-0.032-0.384-0.224-0.384a0.964,0.964,0,0,0-.448.128l-3.168,1.632a0.321,0.321,0,0,0-.256.288V598.4c0,0.128.064,0.16,0.256,0.224l0.608,0.32c0.9,0.479,1.152.8,1.152,2.431v3.008Zm12.76,0.9c0,0.96,0,1.952-.032,2.912-0.032.512-.16,0.64-0.512,0.64H504.8c-0.224,0-.32.064-0.32,0.256v0.64a0.222,0.222,0,0,0,.256.256c0.352,0,1.6-.1,3.456-0.1,1.344,0,2.816.1,3.072,0.1,0.224,0,.288-0.1.288-0.32v-0.544c0-.192-0.064-0.288-0.32-0.288h-1.472c-0.352,0-.448-0.224-0.512-0.832-0.032-.352-0.032-1.5-0.032-2.752v-3.488c0-2.655,0-4.671.064-5.215,0.032-.224,0-0.384-0.16-0.384a1.32,1.32,0,0,0-.608.192,26.189,26.189,0,0,1-3.456,1.568,0.263,0.263,0,0,0-.224.224v0.288c0,0.128.064,0.192,0.288,0.224,1.6,0.256,1.792.831,1.792,1.919v4.7Zm0.32-12.735a1.833,1.833,0,0,0,1.92-1.888,1.686,1.686,0,0,0-1.728-1.7,1.888,1.888,0,0,0-2.016,1.792A1.95,1.95,0,0,0,507.234,592.544Zm9.32,11.9c0,2.336,0,4.992-.064,5.44-0.032.16,0,.224,0.128,0.256l0.384,0.1a0.461,0.461,0,0,0,.416-0.1l1.28-.7a7.383,7.383,0,0,0,3.776.832c3.647,0,6.655-3.52,6.655-7.264,0-4.575-3.04-6.847-5.855-6.847a6.783,6.783,0,0,0-4.416,1.6v-3.712c0-2.848,0-6.5.032-6.752,0.032-.384-0.032-0.544-0.256-0.544a1.339,1.339,0,0,0-.672.288,33.786,33.786,0,0,1-3.392,1.76,0.326,0.326,0,0,0-.256.256v0.256c0,0.1.064,0.16,0.416,0.256l0.32,0.1c1.152,0.384,1.5.832,1.5,2.976v11.807Zm2.3-5.6a4.258,4.258,0,0,1,3.04-1.152c3.135,0,4.767,2.943,4.767,6.047,0,4.192-2.368,5.5-4.287,5.5a3.531,3.531,0,0,1-3.04-1.6c-0.384-1.024-.48-1.984-0.48-4.64v-4.159Zm26.335,2.143a28.323,28.323,0,0,1,.192-4.255,0.277,0.277,0,0,0-.288-0.32c-0.1,0-.224.032-0.384,0.032a2.538,2.538,0,0,1-.544.064h-2.975c-0.32,0-.384.032-0.384,0.288v0.544c0,0.16.16,0.224,0.7,0.224,0.8,0.064,1.312.224,1.376,1.12v7.647a1.745,1.745,0,0,1-.32.864,4.4,4.4,0,0,1-2.751,1.6,2.679,2.679,0,0,1-2.56-1.216c-1.024-1.472-.7-3.52-0.7-4.8v-2.3c0-1.887.1-3.391,0.128-3.679a0.33,0.33,0,0,0-.352-0.384c-0.1,0-.224.032-0.352,0.032a1.668,1.668,0,0,1-.448.064h-2.848c-0.288,0-.352.064-0.352,0.256v0.576c0,0.16.16,0.192,0.7,0.224a1.126,1.126,0,0,1,1.216,1.216v3.743c0,3.52-.064,4.576,1.248,6.272a3.347,3.347,0,0,0,3.008,1.472,5.843,5.843,0,0,0,4.351-2.24h0.064l0.256,1.856c0.032,0.32.16,0.384,0.288,0.384a1.893,1.893,0,0,0,.64-0.128l3.36-1.12a0.205,0.205,0,0,0,.16-0.288l-0.1-.416c-0.032-.128-0.128-0.192-0.384-0.128a4.711,4.711,0,0,1-1.056.1c-0.384,0-.736-0.128-0.832-1.12-0.064-.672-0.064-2.24-0.064-3.776v-2.4Zm9.665,1.7c0-1.472.032-3.04,0.1-4.511h4.127a0.261,0.261,0,0,0,.288-0.256l0.32-1.12a0.21,0.21,0,0,0-.224-0.288h-4.447l0.16-3.136c0-.256-0.064-0.48-0.32-0.48a0.429,0.429,0,0,0-.448.32,14.246,14.246,0,0,1-3.648,4,0.773,0.773,0,0,0-.576.576,0.4,0.4,0,0,0,.48.384h1.952c-0.032,1.343-.064,3.519-0.064,4.095v0.7c0,0.448-.1,3.264-0.1,4.576a3.269,3.269,0,0,0,3.1,2.72,5.377,5.377,0,0,0,3.551-1.28,0.256,0.256,0,0,0,.064-0.352l-0.159-.288a0.261,0.261,0,0,0-.384-0.064,4.6,4.6,0,0,1-2.112.416c-0.576,0-1.664-.416-1.664-2.816v-3.2Zm17.775-1.312c0.512,0,.9-0.064.9-0.512,0-1.248-1.024-4.7-4.7-4.7a5.931,5.931,0,0,0-4.576,1.7,7.2,7.2,0,0,0-2.016,5.087A7.614,7.614,0,0,0,563.642,608a5.856,5.856,0,0,0,5.024,2.272,5.769,5.769,0,0,0,5.087-3.488c0.16-.352.1-0.448,0-0.48l-0.416-.224a0.26,0.26,0,0,0-.288.16,4.334,4.334,0,0,1-3.871,2.176c-2.56,0-4.544-2.368-4.544-5.5a8.216,8.216,0,0,1,.1-1.536h7.9Zm-7.775-.96c0.608-2.367,1.952-3.295,3.36-3.295,2.08,0,2.464,2.111,2.464,2.847,0,0.288-.256.448-0.864,0.448h-4.96Zm34.511,9.952a10.872,10.872,0,0,0,9.216-4.512,11.677,11.677,0,0,0,2.4-7.007,12.327,12.327,0,0,0-4.383-9.568,10.778,10.778,0,0,0-7.168-2.528,10.471,10.471,0,0,0-8.671,4.064,12.432,12.432,0,0,0-2.976,7.968c0,4.671,2.432,8.127,4.7,9.5A14.026,14.026,0,0,0,599.369,610.367Zm0.256-1.216c-2.72,0-8.575-2.976-8.575-11.391a11.407,11.407,0,0,1,3.2-7.9,6.147,6.147,0,0,1,5.055-1.888c3.552,0,8.544,4.128,8.544,11.136C607.849,601.951,606.665,609.151,599.625,609.151Zm21.521-11.967a2.091,2.091,0,0,1,2.144,1.408,2,2,0,0,0,1.759,1.279,1.091,1.091,0,0,0,1.184-1.119c0-.672-1.024-2.592-4.351-2.592-4.224,0-6.848,3.775-6.848,7.519a6.626,6.626,0,0,0,1.44,4.352,5.84,5.84,0,0,0,4.96,2.24A7.4,7.4,0,0,0,626.585,608a0.253,0.253,0,0,0,0-.416l-0.32-.32a0.166,0.166,0,0,0-.256,0,4.387,4.387,0,0,1-3.519,1.376A4.119,4.119,0,0,1,619,607.007a9.019,9.019,0,0,1-1.632-4.864C617.37,598.848,619.322,597.184,621.146,597.184Zm14.6,0a2.091,2.091,0,0,1,2.144,1.408,2,2,0,0,0,1.759,1.279,1.091,1.091,0,0,0,1.184-1.119c0-.672-1.024-2.592-4.351-2.592-4.224,0-6.848,3.775-6.848,7.519a6.626,6.626,0,0,0,1.44,4.352,5.84,5.84,0,0,0,4.96,2.24A7.4,7.4,0,0,0,641.185,608a0.253,0.253,0,0,0,0-.416l-0.32-.32a0.166,0.166,0,0,0-.256,0,4.387,4.387,0,0,1-3.519,1.376,4.119,4.119,0,0,1-3.488-1.632,9.019,9.019,0,0,1-1.632-4.864C631.97,598.848,633.922,597.184,635.746,597.184Zm18.055,8.895v-6.784a2.829,2.829,0,0,0-.7-2.271,3.281,3.281,0,0,0-2.559-.864,7.058,7.058,0,0,0-3.9,1.12,4.019,4.019,0,0,0-2.208,3.007c0,0.736.256,1.024,0.768,1.024,1.312,0,1.7-.7,1.7-1.824,0-.575-0.288-1.055.16-1.471a3.585,3.585,0,0,1,2.08-.672,2.432,2.432,0,0,1,1.92.7,3.716,3.716,0,0,1,.448,1.791v2.048a21.2,21.2,0,0,1-3.616,1.856c-2.528,1.12-3.2,2.4-3.2,3.872,0,2.016,1.152,2.656,1.92,2.656a6.013,6.013,0,0,0,1.888-.192,6.9,6.9,0,0,0,3.168-1.952h0.064a2.385,2.385,0,0,0,2.271,2.144,2.643,2.643,0,0,0,2.5-1.568,0.425,0.425,0,0,0,.032-0.576l-0.32-.256c-0.128-.1-0.192-0.032-0.32.128a1.474,1.474,0,0,1-1.12.48C654.185,608.479,653.8,607.9,653.8,606.079Zm-2.335.7c0,0.864-1.7,1.984-2.624,1.984a1.574,1.574,0,0,1-1.664-1.76c0-2.656,3.136-3.3,4.288-4.16v3.936Zm12.5,3.488c2.72,0,4.831-1.632,4.863-4.224-0.032-2.464-1.5-3.424-3.839-4.1-1.568-.448-3.072-0.8-3.072-2.656a2.256,2.256,0,0,1,2.464-2.111,2.446,2.446,0,0,1,2.24,1.248l1.088,1.471a0.229,0.229,0,0,0,.288.16l0.384-.128a0.3,0.3,0,0,0,.223-0.288l-0.479-2.239a0.745,0.745,0,0,0-.576-0.576,5.961,5.961,0,0,0-2.944-.672c-2.4,0-4.48,1.7-4.48,3.9,0,2.528,1.888,3.52,3.776,4.064,2.4,0.672,3.1,1.5,3.1,2.944a2.332,2.332,0,0,1-2.528,2.176c-1.7,0-2.144-.8-2.784-1.984l-0.8-1.568a0.239,0.239,0,0,0-.288-0.192l-0.416.1a0.205,0.205,0,0,0-.192.256l0.544,3.04a0.581,0.581,0,0,0,.192.448A6.023,6.023,0,0,0,663.962,610.271Zm10.552-4.992c0,0.96,0,1.952-.032,2.912-0.032.512-.16,0.64-0.512,0.64H672.4c-0.224,0-.32.064-0.32,0.256v0.64a0.222,0.222,0,0,0,.256.256c0.352,0,1.6-.1,3.456-0.1,1.344,0,2.816.1,3.072,0.1,0.224,0,.288-0.1.288-0.32v-0.544c0-.192-0.064-0.288-0.32-0.288h-1.472c-0.352,0-.448-0.224-0.512-0.832-0.032-.352-0.032-1.5-0.032-2.752v-3.488c0-2.655,0-4.671.064-5.215,0.032-.224,0-0.384-0.16-0.384a1.32,1.32,0,0,0-.608.192,26.189,26.189,0,0,1-3.456,1.568,0.263,0.263,0,0,0-.224.224v0.288c0,0.128.064,0.192,0.288,0.224,1.6,0.256,1.792.831,1.792,1.919v4.7Zm0.32-12.735a1.833,1.833,0,0,0,1.92-1.888,1.686,1.686,0,0,0-1.728-1.7,1.888,1.888,0,0,0-2.016,1.792A1.95,1.95,0,0,0,674.834,592.544Zm14.76,17.727a7.3,7.3,0,0,0,7.071-7.04,7.1,7.1,0,0,0-2.176-5.215,6.773,6.773,0,0,0-4.479-1.856,6.924,6.924,0,0,0-4.288,1.536,7.148,7.148,0,0,0-.992,10.367A6.453,6.453,0,0,0,689.594,610.271Zm0.384-.96a3.541,3.541,0,0,1-3.168-1.664,6.9,6.9,0,0,1-1.216-4.48c0-2.432.448-3.744,1.7-5.023a3.087,3.087,0,0,1,2.464-1.024c1.632,0,4.223,2.239,4.223,5.791C693.977,606.335,692.409,609.311,689.978,609.311Zm23.807-9.408a4.664,4.664,0,0,0-1.76-3.039,4.94,4.94,0,0,0-2.72-.7,6.422,6.422,0,0,0-4.383,2.336h-0.064l-0.224-1.952c-0.032-.256-0.1-0.384-0.256-0.384a1.691,1.691,0,0,0-.576.224l-2.752,1.536a0.371,0.371,0,0,0-.288.32v0.16a0.307,0.307,0,0,0,.256.288l0.256,0.128a1.97,1.97,0,0,1,1.312,1.887v7.488a0.528,0.528,0,0,1-.64.64h-0.928c-0.256,0-.32.1-0.32,0.288V609.7c0,0.192.064,0.288,0.224,0.288,0.192,0,1.216-.1,2.848-0.1,1.7,0,2.56.1,2.784,0.1,0.16,0,.224-0.1.224-0.288v-0.544a0.265,0.265,0,0,0-.32-0.32h-0.8c-0.672,0-.768-0.192-0.768-1.056v-6.624a3.134,3.134,0,0,1,.736-2.175,3.753,3.753,0,0,1,2.592-1.248,3.5,3.5,0,0,1,2.335.576c0.928,0.672.928,1.6,0.928,2.879v4.224c0,0.832-.032,1.856-0.064,2.688a0.619,0.619,0,0,1-.64.736h-0.928c-0.32,0-.416.064-0.416,0.288v0.512c0,0.256.064,0.352,0.256,0.352,0.224,0,1.248-.1,2.88-0.1,1.824,0,2.816.1,3.04,0.1,0.192,0,.256-0.128.256-0.352v-0.512c0-.192-0.064-0.288-0.352-0.288h-1.024a0.6,0.6,0,0,1-.7-0.672V599.9Zm9.577,10.368c2.72,0,4.831-1.632,4.863-4.224-0.032-2.464-1.5-3.424-3.839-4.1-1.568-.448-3.072-0.8-3.072-2.656a2.256,2.256,0,0,1,2.464-2.111,2.446,2.446,0,0,1,2.24,1.248l1.088,1.471a0.229,0.229,0,0,0,.288.16l0.383-.128a0.3,0.3,0,0,0,.224-0.288l-0.479-2.239a0.745,0.745,0,0,0-.576-0.576A5.961,5.961,0,0,0,724,596.16c-2.4,0-4.48,1.7-4.48,3.9,0,2.528,1.888,3.52,3.776,4.064,2.4,0.672,3.1,1.5,3.1,2.944a2.332,2.332,0,0,1-2.528,2.176c-1.7,0-2.144-.8-2.784-1.984l-0.8-1.568A0.239,0.239,0,0,0,720,605.5l-0.416.1a0.205,0.205,0,0,0-.192.256l0.544,3.04a0.581,0.581,0,0,0,.192.448A6.023,6.023,0,0,0,723.362,610.271Z" transform="translate(-469.219 -586.094)" filter="url(#filter1)"/>
</svg>
